<svg width="80" height="80" viewBox="0 0 80 80" fill="none" xmlns="http://www.w3.org/2000/svg">
<path d="M15.9766 46.4516L10.8153 56.7742H15.4839V80H64.5161V56.7742H69.1847L64.0234 46.4516H15.9766ZM17.5718 49.0323H37.9121L35.3314 54.1935H14.9911L17.5718 49.0323ZM61.9355 77.4193H41.2903V68.3871H38.7097V77.4193H18.0645V56.7742H36.9266L38.7097 53.2076V64.5161H41.2903V53.2076L43.0734 56.7742H61.9355V77.4193ZM62.4282 49.0323L65.0089 54.1935H44.6685L42.0879 49.0323H62.4282ZM20.6452 67.0968H28.3871V69.6774H20.6452V67.0968ZM20.6452 72.2581H28.3871V74.8387H20.6452V72.2581ZM30.9677 72.2581H33.5484V74.8387H30.9677V72.2581ZM34.0411 20.986L40 19.4669L45.9589 20.9847L46.4258 14.5861L49.5911 9.17903L43.9926 6.75597L40 1.81935L36.0061 6.75581L30.4077 9.17887L33.5729 14.586L34.0411 20.986ZM37.614 8.87097L40 5.92242L42.386 8.87226L45.8927 10.3913L43.8968 13.801L43.6102 17.725L40 16.8048L36.3898 17.7235L36.1032 13.7997L34.1073 10.3892L37.614 8.87097ZM6.47742 23.6195L6.75468 27.4376L10.3226 26.529L13.8918 27.4376L14.169 23.6195L16.044 20.4184L12.7224 18.9794L10.3226 16.0132L7.92403 18.9781L4.60242 20.4171L6.47742 23.6195ZM9.53193 21.0944L10.3226 20.1161L11.1132 21.0945L12.3431 21.6276L11.6374 22.8334L11.5392 24.1768L10.3226 23.866L9.10597 24.1753L9.00645 22.8321L8.30081 21.6256L9.53193 21.0944ZM66.1082 27.4376L69.6774 26.529L73.2466 27.4376L73.5239 23.6195L75.3989 20.4184L72.0773 18.9794L69.6774 16.0132L67.2789 18.9781L63.9573 20.4171L65.8323 23.6184L66.1082 27.4376ZM68.8868 21.0944L69.6774 20.1161L70.4681 21.0945L71.6979 21.6276L70.9923 22.8334L70.894 24.1768L69.6774 23.8661L68.4608 24.1755L68.3624 22.8323L67.6569 21.6258L68.8868 21.0944ZM16.0577 30.751C18.5128 32.3868 20.7002 34.3924 22.5423 36.6968L27.6531 43.0827L26.596 34.6282C26.044 30.2142 23.6863 26.1511 20.1279 23.4829L18.8918 22.5561L15.1095 30.1184L16.0577 30.751ZM19.7771 26.5574C21.9589 28.6221 23.4387 31.3703 23.946 34.3435C22.3181 32.4315 20.4656 30.7226 18.4287 29.254L19.7771 26.5574ZM53.404 34.6284L52.3469 43.0827L57.4577 36.6955C59.3001 34.3914 61.4873 32.3858 63.9421 30.7497L64.889 30.1173L61.1069 22.5548L59.8708 23.4842C56.3137 26.1524 53.9547 30.2144 53.404 34.6284ZM61.5713 29.254C59.5338 30.722 57.6813 32.4309 56.054 34.3435C56.5624 31.3703 58.0411 28.6221 60.2231 26.5574L61.5713 29.254ZM45.1613 38.4645C45.1613 31.6645 47.5585 25.044 51.911 19.8192L53.8944 21.4711C49.9263 26.2335 47.7419 32.2669 47.7419 38.4647V43.871H45.1613V38.4645ZM56.7742 18.0645H54.1935V15.4839H56.7742V18.0645ZM60.6452 12.9032H58.0645V10.3226H60.6452V12.9032ZM32.2581 38.4645C32.2581 32.2669 30.0737 26.2335 26.1045 21.4711L28.0879 19.8192C32.4415 25.044 34.8387 31.666 34.8387 38.4645V43.871H32.2581V38.4645ZM25.8064 18.0645H23.2258V15.4839H25.8064V18.0645ZM21.9355 12.9032H19.3548V10.3226H21.9355V12.9032ZM41.2903 24.5161H38.7097V21.9355H41.2903V24.5161ZM38.7097 27.0968H41.2903V43.871H38.7097V27.0968ZM77.4193 37.4194H74.8387V34.8387H77.4193V37.4194ZM74.8387 40H77.4193V42.5806H74.8387V40ZM77.4193 37.4194H80V40H77.4193V37.4194ZM74.8387 37.4194V40H72.2581V37.4194H74.8387ZM73.5484 2.58065H70.9677V0H73.5484V2.58065ZM70.9677 5.16129H73.5484V7.74194H70.9677V5.16129ZM73.5484 5.16129V2.58065H76.129V5.16129H73.5484ZM70.9677 5.16129H68.3871V2.58065H70.9677V5.16129ZM5.16129 42.5806H2.58065V40H5.16129V42.5806ZM2.58065 45.1613H5.16129V47.7419H2.58065V45.1613ZM5.16129 45.1613V42.5806H7.74194V45.1613H5.16129ZM2.58065 45.1613H0V42.5806H2.58065V45.1613ZM5.16129 2.58065H2.58065V0H5.16129V2.58065ZM2.58065 5.16129H5.16129V7.74194H2.58065V5.16129ZM5.16129 5.16129V2.58065H7.74194V5.16129H5.16129ZM2.58065 5.16129H0V2.58065H2.58065V5.16129Z" fill="white"/>
</svg>
