<svg width="133" height="41" viewBox="0 0 133 41" fill="none" xmlns="http://www.w3.org/2000/svg">
<g clip-path="url(#clip0_3369_14612)">
<path d="M116.252 38.2504L99.7542 28.3684V21.6562L116.252 31.5382V38.2504Z" fill="#004765"/>
<path d="M132.75 28.3684L116.252 38.2504V31.5382L132.75 21.6562V28.3684Z" fill="#004765"/>
<path d="M116.248 2.25L99.75 12.1319V18.8441L116.248 8.96218V2.25Z" fill="#004765"/>
<path d="M132.746 12.1319L116.248 2.25V8.96218L132.746 18.8441V12.1319Z" fill="#004765"/>
<path d="M116.252 28.7414L99.7542 18.8616V12.1494L116.252 22.0292V28.7414Z" fill="#004765"/>
<path d="M132.75 18.8616L116.252 28.7414V22.0292L132.75 12.1494V18.8616Z" fill="#004765"/>
</g>
<path d="M8.00813 25.376C8.31213 25.376 8.56813 25.272 8.77613 25.064C9.00013 24.84 9.11213 24.576 9.11213 24.272V13.064H12.5441V24.464C12.5441 25.28 12.3441 26.04 11.9441 26.744C11.5441 27.432 11.0001 27.984 10.3121 28.4C9.62413 28.8 8.86413 29 8.03213 29H1.45613V25.376H8.00813ZM1.48013 14L4.81613 13.136L7.40813 23.768L4.07213 24.632L1.48013 14ZM19.0691 29C18.2371 29 17.4771 28.8 16.7891 28.4C16.1011 27.984 15.5571 27.432 15.1571 26.744C14.7571 26.04 14.5571 25.28 14.5571 24.464V12.824H18.0131V24.248C18.0131 24.568 18.1171 24.84 18.3251 25.064C18.5331 25.272 18.7891 25.376 19.0931 25.376H20.4131C20.5731 25.376 20.6531 25.456 20.6531 25.616V28.76C20.6531 28.92 20.5731 29 20.4131 29H19.0691ZM20.1741 25.616C20.1741 25.456 20.2541 25.376 20.4141 25.376H25.8141C26.2461 25.376 26.6141 25.232 26.9181 24.944C27.2221 24.656 27.3741 24.272 27.3741 23.792C27.3741 23.216 27.1021 22.76 26.5581 22.424L21.1341 18.848V16.232L25.9101 11.144L28.2861 13.376L24.7101 17.096L28.6941 19.712C29.3661 20.144 29.8861 20.728 30.2541 21.464C30.6381 22.184 30.8301 22.984 30.8301 23.864C30.8301 24.792 30.5981 25.648 30.1341 26.432C29.6861 27.216 29.0781 27.84 28.3101 28.304C27.5421 28.768 26.6941 29 25.7661 29H20.4141C20.2541 29 20.1741 28.92 20.1741 28.76V25.616ZM49.1113 25.376C49.2713 25.376 49.3513 25.456 49.3513 25.616V28.76C49.3513 28.92 49.2713 29 49.1113 29H48.1033C47.4153 29 46.7913 28.856 46.2313 28.568C45.6873 28.28 45.2393 27.88 44.8873 27.368C44.0553 27.976 43.0953 28.28 42.0073 28.28C41.0473 28.28 40.1593 28.048 39.3433 27.584C38.5433 27.104 37.9033 26.464 37.4233 25.664C36.9433 24.848 36.7033 23.968 36.7033 23.024C36.7033 22.096 36.9433 21.256 37.4233 20.504C37.9033 19.736 38.5433 19.136 39.3433 18.704C40.1593 18.256 41.0473 18.032 42.0073 18.032H43.5913V16.496H46.9993V24.248C46.9993 24.568 47.1033 24.84 47.3113 25.064C47.5193 25.272 47.7833 25.376 48.1033 25.376H49.1113ZM43.5913 21.488H42.0073C41.5433 21.488 41.1513 21.632 40.8313 21.92C40.5273 22.208 40.3753 22.576 40.3753 23.024C40.3753 23.488 40.5273 23.88 40.8313 24.2C41.1513 24.504 41.5433 24.656 42.0073 24.656C42.4553 24.656 42.8313 24.504 43.1353 24.2C43.4393 23.88 43.5913 23.488 43.5913 23.024V21.488ZM64.4616 13.376V16.448H61.3896V13.376H64.4616ZM62.9496 18.32C63.9096 18.32 64.7976 18.56 65.6136 19.04C66.4296 19.52 67.0776 20.176 67.5576 21.008C68.0376 21.824 68.2776 22.712 68.2776 23.672C68.2776 24.616 68.0376 25.504 67.5576 26.336C67.0776 27.152 66.4216 27.8 65.5896 28.28C64.7736 28.76 63.8936 29 62.9496 29H57.2376C55.6056 29 54.3016 28.4 53.3256 27.2C53.0056 27.776 52.5736 28.224 52.0296 28.544C51.4856 28.848 50.8456 29 50.1096 29H49.1016C48.9416 29 48.8616 28.92 48.8616 28.76V25.616C48.8616 25.456 48.9416 25.376 49.1016 25.376H50.1096C50.4296 25.376 50.6936 25.272 50.9016 25.064C51.1256 24.84 51.2376 24.568 51.2376 24.248V20.048H54.6696V22.424L59.6616 19.448C60.3176 19.048 60.8776 18.76 61.3416 18.584C61.8056 18.408 62.3416 18.32 62.9496 18.32ZM62.9496 25.376C63.4456 25.376 63.8616 25.2 64.1976 24.848C64.5496 24.496 64.7256 24.08 64.7256 23.6C64.7256 23.088 64.5496 22.648 64.1976 22.28C63.8456 21.912 63.4056 21.728 62.8776 21.728C62.6696 21.728 62.4296 21.784 62.1576 21.896C61.8856 21.992 61.5256 22.184 61.0776 22.472L56.3016 25.328C56.4936 25.36 56.6296 25.376 56.7096 25.376H62.9496ZM75.8235 25.376C75.9835 25.376 76.0635 25.456 76.0635 25.616V28.76C76.0635 28.92 75.9835 29 75.8235 29H74.8155C74.3995 29 74.0235 28.952 73.6875 28.856C73.6235 29.976 73.4075 30.92 73.0395 31.688C72.6715 32.472 72.0875 33.176 71.2875 33.8C70.4875 34.44 69.3675 35.112 67.9275 35.816L66.6315 32.912C67.7675 32.256 68.5755 31.728 69.0555 31.328C69.5355 30.928 69.8555 30.496 70.0155 30.032C70.1755 29.568 70.2555 28.896 70.2555 28.016V20.048H73.7115V24.248C73.7115 24.568 73.8155 24.84 74.0235 25.064C74.2315 25.272 74.4955 25.376 74.8155 25.376H75.8235ZM86.2603 25.376V29H75.8203C75.6603 29 75.5803 28.92 75.5803 28.76V25.616C75.5803 25.456 75.6603 25.376 75.8203 25.376H77.5723C77.3003 24.784 77.1643 24.144 77.1643 23.456C77.1643 22.448 77.4123 21.544 77.9083 20.744C78.4043 19.928 79.0843 19.288 79.9483 18.824C80.8123 18.36 81.7563 18.128 82.7803 18.128H85.4203V21.512H82.7803C82.2043 21.512 81.7323 21.696 81.3643 22.064C80.9963 22.416 80.8123 22.872 80.8123 23.432C80.8123 24.008 80.9963 24.48 81.3643 24.848C81.7323 25.2 82.2043 25.376 82.7803 25.376H86.2603Z" fill="#004765"/>
<defs>
<clipPath id="clip0_3369_14612">
<rect width="33" height="36" fill="white" transform="translate(99.75 2.25)"/>
</clipPath>
</defs>
</svg>
