<svg width="53" height="54" viewBox="0 0 53 54" fill="none" xmlns="http://www.w3.org/2000/svg">
<rect y="0.375" width="53" height="53" rx="26.5" fill="#C084FC"/>
<path d="M17.4966 19.0391H21.1046L23.0951 28.6061H31.8141" stroke="white" stroke-width="1.25" stroke-miterlimit="10"/>
<path d="M24.0932 21.3926H32.5957L31.2592 25.4706H22.5457" stroke="white" stroke-width="1.25" stroke-miterlimit="10"/>
<path d="M11.4695 33.0554V17.1204C11.4695 15.9334 12.4405 14.9629 13.626 14.9629H38.87C40.0575 14.9629 41.028 15.9334 41.028 17.1204V33.0554" stroke="white" stroke-width="1.25" stroke-miterlimit="10" stroke-linejoin="round"/>
<path d="M8.02759 35.4326C8.02759 35.4326 8.65659 38.2871 10.7446 38.2871H41.7551C43.8441 38.2871 44.4731 35.4326 44.4731 35.4326H8.02759Z" stroke="white" stroke-width="1.25" stroke-miterlimit="10" stroke-linejoin="round"/>
<path d="M24.0765 31.9802C24.2916 31.9802 24.466 31.8058 24.466 31.5907C24.466 31.3756 24.2916 31.2012 24.0765 31.2012C23.8614 31.2012 23.687 31.3756 23.687 31.5907C23.687 31.8058 23.8614 31.9802 24.0765 31.9802Z" fill="white" stroke="white" stroke-width="1.25" stroke-miterlimit="10"/>
<path d="M29.8805 31.9802C30.0956 31.9802 30.27 31.8058 30.27 31.5907C30.27 31.3756 30.0956 31.2012 29.8805 31.2012C29.6654 31.2012 29.491 31.3756 29.491 31.5907C29.491 31.8058 29.6654 31.9802 29.8805 31.9802Z" fill="white" stroke="white" stroke-width="1.25" stroke-miterlimit="10"/>
</svg>
