<svg width="53" height="53" viewBox="0 0 53 53" fill="none" xmlns="http://www.w3.org/2000/svg">
<circle cx="26.5" cy="26.5" r="26.5" fill="#EAB308"/>
<path d="M13.043 35.8164C20.4072 35.8104 27.7394 36.7856 34.8461 38.7162C35.8495 38.9895 36.8516 38.2442 36.8516 37.2035V35.8164M15.1133 16.1484V17.1836C15.1133 17.4581 15.0042 17.7214 14.8101 17.9156C14.616 18.1097 14.3527 18.2187 14.0781 18.2187H13.043M13.043 18.2187V17.7012C13.043 16.8441 13.7386 16.1484 14.5957 16.1484H37.8867M13.043 18.2187V30.6406M37.8867 16.1484V17.1836C37.8867 17.755 38.3505 18.2187 38.9219 18.2187H39.957M37.8867 16.1484H38.4043C39.2614 16.1484 39.957 16.8441 39.957 17.7012V31.1582C39.957 32.0153 39.2614 32.7109 38.4043 32.7109H37.8867M13.043 30.6406V31.1582C13.043 31.57 13.2066 31.965 13.4978 32.2562C13.7889 32.5473 14.1839 32.7109 14.5957 32.7109H15.1133M13.043 30.6406H14.0781C14.3527 30.6406 14.616 30.7497 14.8101 30.9438C15.0042 31.1379 15.1133 31.4012 15.1133 31.6758V32.7109M37.8867 32.7109V31.6758C37.8867 31.4012 37.9958 31.1379 38.1899 30.9438C38.384 30.7497 38.6473 30.6406 38.9219 30.6406H39.957M37.8867 32.7109H15.1133M30.6406 24.4297C30.6406 25.5278 30.2044 26.581 29.4279 27.3576C28.6513 28.1341 27.5982 28.5703 26.5 28.5703C25.4018 28.5703 24.3487 28.1341 23.5721 27.3576C22.7956 26.581 22.3594 25.5278 22.3594 24.4297C22.3594 23.3315 22.7956 22.2783 23.5721 21.5018C24.3487 20.7253 25.4018 20.2891 26.5 20.2891C27.5982 20.2891 28.6513 20.7253 29.4279 21.5018C30.2044 22.2783 30.6406 23.3315 30.6406 24.4297ZM34.7813 24.4297H34.7923V24.4407H34.7813V24.4297ZM18.2188 24.4297H18.2298V24.4407H18.2188V24.4297Z" stroke="white" stroke-width="1.875" stroke-linecap="round" stroke-linejoin="round"/>
</svg>
