<svg width="60" height="60" viewBox="0 0 60 60" fill="none" xmlns="http://www.w3.org/2000/svg">
<rect width="60" height="60" fill="#FFE4CC"/>
<path d="M48.9 27.4166C47.8595 28.0776 46.6574 28.4283 45.4307 28.4286C44.5355 28.43 43.6496 28.2447 42.8276 27.8841C42.0056 27.5236 41.265 26.9954 40.6515 26.3323C39.1856 27.6947 37.2841 28.4726 35.3316 28.4726C35.0312 28.4723 34.731 28.4539 34.4326 28.4176C32.4169 28.1693 30.9448 27.1431 29.9856 26.1924C29.0248 27.1416 27.5542 28.1677 25.5385 28.4176C23.2724 28.6941 21.0095 27.9037 19.3196 26.3323C18.7061 26.9954 17.9655 27.5236 17.1435 27.8841C16.3215 28.2447 15.4356 28.43 14.5404 28.4286C13.3365 28.4282 12.156 28.0906 11.1283 27.4527C9.04142 26.161 8.38184 23.3481 9.63148 21.1403L14.213 10.7799C14.5801 9.95217 15.174 9.24972 15.9236 8.75668C16.6732 8.26364 17.5466 8.00092 18.4392 8H41.844C43.7053 8 45.3797 9.12514 46.1072 10.8679L50.4369 21.2126C51.5924 23.3764 50.9158 26.1421 48.9 27.4181V27.4166ZM26.8947 52H33.0733V41H26.8947V52ZM48.52 31.0183V47.2857C48.52 49.8849 46.4409 52 43.886 52H36.1627V41C36.1627 39.2667 34.7771 37.8571 33.0733 37.8571H26.8947C25.1909 37.8571 23.8053 39.2667 23.8053 41V52H16.082C13.5271 52 11.448 49.8849 11.448 47.2857V31.0183C14.0678 31.8951 17.0351 31.6327 19.4015 30.2341C21.3821 31.3521 23.6583 31.8078 25.9076 31.5369C27.3478 31.3585 28.7358 30.878 29.984 30.1257C31.6024 31.1012 33.449 31.6158 35.3301 31.6154C37.1626 31.6127 38.9646 31.1381 40.5681 30.2357C42.9345 31.6343 45.9003 31.8936 48.52 31.0183ZM22.2607 36.2857C22.2607 35.8689 22.0979 35.4692 21.8083 35.1745C21.5186 34.8798 21.1257 34.7143 20.716 34.7143H16.082C15.6723 34.7143 15.2794 34.8798 14.9898 35.1745C14.7001 35.4692 14.5373 35.8689 14.5373 36.2857C14.5373 36.7025 14.7001 37.1022 14.9898 37.3969C15.2794 37.6916 15.6723 37.8571 16.082 37.8571H20.716C21.1257 37.8571 21.5186 37.6916 21.8083 37.3969C22.0979 37.1022 22.2607 36.7025 22.2607 36.2857Z" fill="#003349"/>
</svg>
