<svg width="220" height="82" viewBox="0 0 220 82" fill="none" xmlns="http://www.w3.org/2000/svg">
<path d="M53.1613 26.8803C53.1613 27.1376 52.9533 27.3455 52.6959 27.3455C52.4385 27.3455 52.2305 27.1376 52.2305 26.8803C52.2305 26.623 52.4385 26.415 52.6959 26.415C52.9533 26.415 53.1613 26.623 53.1613 26.8803Z" fill="#E09F1E"/>
<path d="M50.5615 36.0318C50.5615 36.1759 50.4459 36.2912 50.3013 36.2912C50.1567 36.2912 50.041 36.1739 50.041 36.0318C50.041 35.8898 50.1567 35.7725 50.3013 35.7725C50.4459 35.7725 50.5615 35.8898 50.5615 36.0318Z" fill="#E09F1E"/>
<path d="M55.0228 32.0778C55.0228 32.1543 54.9608 32.2142 54.8865 32.2142C54.8121 32.2142 54.748 32.1522 54.748 32.0778C54.748 32.0035 54.81 31.9395 54.8865 31.9395C54.9629 31.9395 55.0228 32.0014 55.0228 32.0778Z" fill="#E09F1E"/>
<path d="M157.737 49.5884C151.619 47.6101 151.983 34.0726 152.045 32.5369C152.098 31.2276 154.065 31.3182 154.014 32.6151C153.863 36.3762 154.351 46.4223 158.344 47.7151C161.94 48.8803 169.448 41.673 173.338 36.86C174.154 35.8472 175.692 37.0803 174.872 38.0972C171.394 42.4039 162.982 51.2827 157.739 49.5884H157.737Z" fill="#485452"/>
<path d="M202.194 49.7744C198.572 31.3498 196.834 29.4682 198.677 29.0647C200.516 28.6633 199.721 31.0554 204.12 49.3545C204.235 49.8856 203.899 49.9412 203.368 50.0564C202.826 50.1738 202.31 50.2973 202.194 49.7744Z" fill="#485452"/>
<path d="M160.157 28.7578C158.36 20.4142 155.996 11.1896 155.151 10.1932C150.891 5.93596 148.772 5.32867 149.83 4.10173C150.186 3.69001 150.808 3.64472 151.22 4.00086C151.377 4.13673 155.069 7.32553 156.554 8.81185C158.117 10.3743 161.181 24.1568 162.085 28.3461C162.359 29.6204 160.433 30.0341 160.157 28.7619V28.7578Z" fill="#485452"/>
<path d="M160.487 28.7579C158.689 20.4143 156.325 11.1897 155.481 10.1933C151.22 5.93607 149.101 5.32878 150.159 4.10184C150.316 3.92069 150.524 3.81158 150.742 3.77452C150.413 3.71894 150.065 3.83216 149.83 4.10184C148.772 5.32878 150.891 5.93607 155.151 10.1933C155.996 11.1897 158.36 20.4164 160.157 28.7579C160.289 29.3652 160.796 29.5896 161.261 29.5175C160.909 29.462 160.588 29.2232 160.487 28.7579Z" fill="#2F3534"/>
<path d="M192.563 36.7588C192.489 36.7588 188.375 36.7629 188.375 36.7629L188.156 58.7592H192.563C197.415 58.7592 201.35 53.835 201.35 47.76C201.35 41.6851 197.417 36.7608 192.563 36.7608V36.7588Z" fill="#1E2120"/>
<path d="M197.162 47.758C197.162 53.833 193.229 58.7572 188.375 58.7572C183.521 58.7572 179.588 53.833 179.588 47.758C179.588 41.683 183.521 36.7588 188.375 36.7588C193.229 36.7588 197.162 41.683 197.162 47.758Z" fill="#5B605F"/>
<path d="M195.822 47.7576C195.822 53.2274 192.391 57.6637 188.159 57.6637C183.927 57.6637 180.494 53.2294 180.494 47.7576C180.494 42.2858 183.925 37.8516 188.159 37.8516C192.393 37.8516 195.822 42.2858 195.822 47.7576Z" fill="#485452"/>
<path d="M181.439 47.7595C181.439 42.4935 184.619 38.189 188.631 37.874C188.474 37.8616 188.316 37.8555 188.157 37.8555C183.925 37.8555 180.492 42.2897 180.492 47.7615C180.492 53.2333 183.923 57.6676 188.157 57.6676C188.316 57.6676 188.474 57.6614 188.631 57.6491C184.619 57.3341 181.439 53.0275 181.439 47.7636V47.7595Z" fill="#333A39"/>
<path d="M191.906 47.7593C191.906 50.7114 190.16 53.1055 188.006 53.1055C185.852 53.1055 184.105 50.7114 184.105 47.7593C184.105 44.8073 185.852 42.4131 188.006 42.4131C190.16 42.4131 191.906 44.8073 191.906 47.7593Z" fill="#F44B16"/>
<path d="M190.287 43.421C191.049 44.4585 191.524 45.9181 191.524 47.5341C191.524 50.2083 190.227 52.4522 188.477 53.0636C190.41 52.7465 191.907 50.4903 191.907 47.7564C191.907 45.9716 191.269 44.3906 190.287 43.4189V43.421Z" fill="#771F07"/>
<path d="M144.691 19.11L171.668 13.6094L218.678 18.6159C218.678 18.6159 190.194 27.2065 185.34 27.7274C179.619 28.3408 144.693 19.1079 144.693 19.1079L144.691 19.11Z" fill="#6E5D76"/>
<path d="M171.668 13.6104L144.691 19.111L185.338 27.7304C198.394 26.17 218.184 18.127 218.184 18.127L171.668 13.6124V13.6104Z" fill="#6E5D76"/>
<g style="mix-blend-mode:multiply" opacity="0.32">
<path d="M171.098 24.7084L171.668 13.6104L144.691 19.1089L171.098 24.7084Z" fill="#6E5D76"/>
</g>
<path d="M149.125 36.7577L144.691 19.1092L185.338 27.7286L218.678 18.6172L186.899 40.7535L172.774 44.037L149.125 36.7577Z" fill="#60607A"/>
<path d="M218.677 18.6172C218.677 18.6172 181.89 38.7278 174.664 38.7278L172.775 44.037L186.898 40.7535L218.677 18.6172Z" fill="#515166"/>
<path d="M172.773 44.037L186.896 40.7535L218.675 18.6172C218.675 18.6172 187.02 40 186.28 40.2059C185.541 40.4118 172.773 44.037 172.773 44.037Z" fill="#464C57"/>
<path d="M172.774 44.0352L185.338 27.7269L144.691 19.1074L149.125 36.756L172.774 44.0352Z" fill="#8C8E8E"/>
<path d="M159.747 27.2901C156.312 25.6782 149.87 24.021 145.68 23.0391L149.127 36.7577L163.517 41.1858C163.709 36.6218 163.441 29.0235 159.747 27.2901Z" fill="#989999"/>
<path d="M185.338 28.7125C185.27 28.7125 185.2 28.7063 185.134 28.6919L144.488 20.0724C144.03 19.9757 143.705 19.5722 143.707 19.1049C143.707 18.6376 144.039 18.2361 144.496 18.1435L171.473 12.6429C171.57 12.6223 171.668 12.6182 171.765 12.6285L218.281 17.143C218.732 17.1862 219.096 17.5321 219.16 17.9809C219.226 18.4297 218.977 18.864 218.557 19.0349C217.743 19.3643 198.495 27.1479 185.455 28.7042C185.416 28.7083 185.377 28.7104 185.338 28.7104V28.7125ZM149.529 19.1275L185.381 26.73C194.706 25.5813 207.593 21.0812 213.948 18.7014L171.718 14.6027L149.527 19.1275H149.529Z" fill="#A798AF"/>
<path d="M184.276 28.1835C181.954 27.708 178.572 26.8331 144.484 20.0726C166.426 25.0297 184.307 28.867 184.141 28.8094C192.184 29.2129 211.05 22.2053 218.552 19.0371C189.54 29.9066 183.823 28.0868 184.274 28.1835H184.276Z" fill="#575359"/>
<g style="mix-blend-mode:screen">
<path d="M145.68 19.1582L171.738 24.3871C171.915 24.4221 172.031 24.595 171.996 24.7741C171.961 24.9512 171.788 25.0664 171.608 25.0314C171.608 25.0314 171.602 25.0314 171.6 25.0314L145.68 19.1603V19.1582Z" fill="#C5D8CC"/>
</g>
<path d="M194.999 51.5748C190.438 34.2515 188.066 31.8944 190.389 31.213C192.726 30.5316 192.022 33.8933 197.522 50.8357C197.726 51.5315 197.328 52.2623 196.632 52.4661C195.928 52.672 195.203 52.2644 195.001 51.5768L194.999 51.5748Z" fill="#687A77"/>
<path d="M204.209 48.4686C203.453 47.4557 203.403 48.4109 196.344 49.8479L174.295 42.3936L149.116 34.9723C136.266 16.665 137.127 17.7108 129.149 12.5107C128.539 12.1154 127.726 12.2863 127.33 12.8936C125.951 15.0078 130.778 15.8477 134.892 19.9567C136.513 21.5769 147.444 37.1647 147.491 37.2326L173.502 44.8989L195.253 52.4376C196.06 52.7176 196.935 52.732 197.751 52.4726C199.738 51.8406 203.309 50.626 203.943 50.1525C204.524 49.7182 204.643 49.0532 204.209 48.4706V48.4686Z" fill="#687A77"/>
<g style="mix-blend-mode:screen">
<path opacity="0.54" d="M148.877 35.7725L179.94 44.7522C180.164 44.7995 180.31 45.0321 180.265 45.2709C180.22 45.5097 180.001 45.6641 179.777 45.6147C179.775 45.6147 179.771 45.6147 179.767 45.6127L148.877 35.7725Z" fill="#C5D8CC"/>
</g>
<path d="M119.53 11.3837L128.068 15.1819L129.438 12.2978L121.219 7.8244C120.469 7.46826 119.569 7.78734 119.215 8.53874L118.816 9.38071C118.459 10.1301 118.779 11.0276 119.53 11.3858V11.3837Z" fill="#60607A"/>
<path d="M141.681 0.74823C141.368 1.40287 141.646 2.1872 142.301 2.49806L150.44 6.15828L151.661 4.05025L143.432 0.128584C142.777 -0.184326 141.992 0.0935896 141.681 0.74823Z" fill="#60607A"/>
<path d="M121.22 7.8244C120.471 7.46826 119.571 7.78734 119.216 8.53874L118.817 9.38071C118.712 9.6051 118.665 9.83978 118.673 10.0724C121.828 11.2541 126.377 12.8371 127.567 12.6272C128.069 12.5386 128.584 12.341 129.07 12.0981L121.222 7.82645L121.22 7.8244Z" fill="#73738E"/>
<path d="M143.433 0.128584C142.778 -0.184326 141.993 0.0935896 141.682 0.74823C141.647 0.82234 141.618 0.900565 141.598 0.976734C144.077 2.30248 148.437 4.4805 149.893 4.24994C150.372 4.17377 150.784 4.00908 151.134 3.7991L143.433 0.128584Z" fill="#73738E"/>
<path d="M0.00401445 63.8468C0.00401445 63.8468 11.8286 50.4431 26.2808 45.98C40.7331 41.519 44.3451 25.962 52.8851 21.9209C61.425 17.8778 76.8637 7.67736 79.4914 7.67736C82.1191 7.67736 83.4329 6.16016 83.4329 6.16016C83.4329 6.16016 109.992 18.3966 114.636 23.0388C119.279 27.683 144.135 45.3274 148.876 48.2424C153.616 51.1574 169.767 58.7579 172.667 63.8468C175.564 68.9357 175.155 69.5924 165.013 70.9058C154.87 72.2192 105.109 73.5326 94.5985 79.6075C84.0878 85.6825 46.6104 76.5567 43.3587 73.3061C40.1071 70.0555 43.0313 65.4895 30.385 67.6243C17.7388 69.7591 0.00195312 70.4158 0.00195312 63.8488L0.00401445 63.8468Z" fill="#FAC640"/>
<path d="M94.6004 79.6075C105.111 73.5326 154.872 72.2192 165.014 70.9058C175.157 69.5924 175.566 68.9357 172.669 63.8468C169.771 58.7579 153.618 51.1574 148.878 48.2424C144.137 45.3274 119.281 27.683 114.638 23.0388C109.994 18.3966 83.4348 6.16016 83.4348 6.16016C83.4348 6.16016 82.8726 6.80862 81.7503 7.2574C85.8092 12.7251 79.8207 23.2961 78.0147 29.0252C76.2087 34.7544 83.1053 41.3543 83.1053 46.3485C83.1053 51.3427 80.4777 58.0991 81.1346 58.7558C81.7915 59.4125 85.5683 57.7718 90.9884 58.7558C96.4085 59.7419 93.1239 64.6661 90.9884 66.8009C88.8529 68.9357 79.656 71.8898 73.9085 71.0684C68.1609 70.247 60.4426 74.6813 60.4426 74.6813C49.7672 73.8599 51.637 66.5744 49.7672 64.7052C47.8994 62.838 69.8022 25.0356 69.8022 25.0356C69.8022 25.0356 51.4084 51.4168 49.6024 51.4168C47.7964 51.4168 48.4533 48.2692 48.4533 48.2692C48.4533 48.2692 33.5089 66.3089 29.2379 64.5899C24.9689 62.871 40.8977 50.546 40.8977 50.546C40.8977 50.546 22.8314 62.5313 14.1287 64.3367C9.18843 65.3619 5.30662 63.0727 2.87251 60.9009C1.03973 62.6692 0.00390625 63.8426 0.00390625 63.8426C0.00390625 70.4096 17.7407 69.7529 30.387 67.6181C43.0332 65.4833 40.109 70.0494 43.3606 73.2999C46.6123 76.5525 84.0897 85.6763 94.6004 79.6014V79.6075Z" fill="#EDB22E"/>
<path d="M57.8941 61.138C57.8941 61.138 70.9501 63.1905 75.3838 62.2868C79.8175 61.383 81.1313 58.7562 81.1313 58.7562C81.1313 58.7562 81.2137 58.7109 80.5568 55.4501C79.8998 52.1892 79.9822 48.249 79.4077 45.6222C78.8331 42.9955 76.4917 49.1116 74.8916 50.7112C73.2894 52.3128 75.4662 39.5473 75.0563 36.5932C74.6465 33.639 70.6226 34.8701 68.8166 43.2425C67.0106 51.6149 64.628 54.816 60.9336 54.2417C57.2392 53.6673 54.5291 56.8685 54.0349 59.0033C53.5427 61.138 57.8941 61.138 57.8941 61.138Z" fill="#EDB22E"/>
<path d="M172.67 63.8468C169.772 58.7579 153.619 51.1574 148.879 48.2424C144.138 45.3274 119.282 27.683 114.638 23.0388C109.995 18.3966 83.4358 6.16016 83.4358 6.16016C83.4358 6.16016 164.579 57.6091 164.579 61.8767C164.579 66.1442 165.386 68.4436 157.34 68.4436C149.295 68.4436 139.931 66.3089 134.513 68.4436C129.093 70.5784 124.989 66.4735 124.989 66.4735C124.989 66.4735 117.927 49.07 116.449 50.5481L117.598 55.4496L98.2175 27.7283C98.2175 27.7283 119.404 63.3547 117.76 66.6382C116.119 69.9217 107.742 72.8779 104.949 73.6972C102.157 74.5166 96.2447 75.5026 93.7817 77.9648C91.3188 80.4269 65.3694 79.2782 62.577 77.9648C59.7846 76.6514 45.1696 74.846 43.0341 70.5764C42.5667 69.6438 41.642 68.9851 40.4785 68.5281C41.6585 69.8085 41.7718 71.7127 43.3616 73.302C46.6132 76.5546 84.0906 85.6784 94.6014 79.6034C105.112 73.5284 154.873 72.215 165.015 70.9016C175.157 69.5882 175.567 68.9315 172.67 63.8426V63.8468Z" fill="#E09F1E"/>
<path d="M60.5832 25.3266C60.5832 25.6683 60.3073 25.9442 59.9654 25.9442C59.6236 25.9442 59.3477 25.6683 59.3477 25.3266C59.3477 24.9848 59.6257 24.709 59.9654 24.709C60.3052 24.709 60.5832 24.9848 60.5832 25.3266Z" fill="#E09F1E"/>
<path d="M66.1512 19.6584C66.1512 19.9343 65.9268 20.1587 65.6508 20.1587C65.3749 20.1587 65.1504 19.9343 65.1504 19.6584C65.1504 19.3826 65.3749 19.1582 65.6508 19.1582C65.9268 19.1582 66.1512 19.3826 66.1512 19.6584Z" fill="#E09F1E"/>
<path d="M65.1488 24.3692C65.1488 24.6121 64.9531 24.8076 64.7101 24.8076C64.4671 24.8076 64.2715 24.6121 64.2715 24.3692C64.2715 24.1262 64.4671 23.9307 64.7101 23.9307C64.9531 23.9307 65.1488 24.1262 65.1488 24.3692Z" fill="#E09F1E"/>
<path d="M59.9654 20.9914C59.9654 21.1623 59.8275 21.3002 59.6566 21.3002C59.4856 21.3002 59.3477 21.1623 59.3477 20.9914C59.3477 20.8205 59.4856 20.6826 59.6566 20.6826C59.8275 20.6826 59.9654 20.8205 59.9654 20.9914Z" fill="#E09F1E"/>
<path d="M61.9668 23.2531C61.9668 23.3725 61.8697 23.4672 61.7519 23.4672C61.6342 23.4672 61.5371 23.3705 61.5371 23.2531C61.5371 23.1358 61.6342 23.0391 61.7519 23.0391C61.8697 23.0391 61.9668 23.1358 61.9668 23.2531Z" fill="#E09F1E"/>
<path d="M59.0732 30.6839C59.0732 30.8342 58.9496 30.9577 58.7993 30.9577C58.649 30.9577 58.5254 30.8342 58.5254 30.6839C58.5254 30.5337 58.649 30.4102 58.7993 30.4102C58.9496 30.4102 59.0732 30.5316 59.0732 30.6839Z" fill="#E09F1E"/>
<path d="M87.4766 12.2636C87.4766 12.4735 87.3056 12.6423 87.0977 12.6423C86.8897 12.6423 86.7188 12.4715 86.7188 12.2636C86.7188 12.0556 86.8897 11.8848 87.0977 11.8848C87.3056 11.8848 87.4766 12.0536 87.4766 12.2636Z" fill="#E09F1E"/>
<path d="M90.4865 12.9687C90.4865 13.1478 90.3423 13.2919 90.1631 13.2919C89.984 13.2919 89.8398 13.1478 89.8398 12.9687C89.8398 12.7896 89.986 12.6455 90.1631 12.6455C90.3402 12.6455 90.4865 12.7896 90.4865 12.9687Z" fill="#E09F1E"/>
<path d="M90.7656 15.828C90.7656 15.9948 90.6297 16.1306 90.4629 16.1306C90.2961 16.1306 90.1602 15.9948 90.1602 15.828C90.1602 15.6613 90.294 15.5254 90.4629 15.5254C90.6318 15.5254 90.7656 15.6613 90.7656 15.828Z" fill="#E09F1E"/>
<path d="M85.8434 14.457C85.8434 14.5928 85.7319 14.704 85.5955 14.704C85.4592 14.704 85.3477 14.5949 85.3477 14.457C85.3477 14.3191 85.4592 14.21 85.5955 14.21C85.7319 14.21 85.8434 14.3211 85.8434 14.457Z" fill="#E09F1E"/>
<path d="M84.7198 9.65578C84.7198 9.76939 84.6268 9.86234 84.5132 9.86234C84.3996 9.86234 84.3066 9.76939 84.3066 9.65578C84.3066 9.54217 84.3996 9.44922 84.5132 9.44922C84.6268 9.44922 84.7198 9.54217 84.7198 9.65578Z" fill="#E09F1E"/>
<path d="M85.5587 22.4752C85.6785 22.4752 85.7756 22.3785 85.7756 22.2591C85.7756 22.1397 85.6785 22.043 85.5587 22.043C85.4389 22.043 85.3418 22.1397 85.3418 22.2591C85.3418 22.3785 85.4389 22.4752 85.5587 22.4752Z" fill="#E09F1E"/>
<path d="M82.9928 25.4349C82.9928 25.5175 82.9267 25.5836 82.8441 25.5836C82.7614 25.5836 82.6953 25.5175 82.6953 25.4349C82.6953 25.3522 82.7614 25.2861 82.8441 25.2861C82.9267 25.2861 82.9928 25.3522 82.9928 25.4349Z" fill="#E09F1E"/>
<path d="M85.343 25.8502C85.343 25.9349 85.2749 26.0052 85.1881 26.0052C85.1014 26.0052 85.0332 25.937 85.0332 25.8502C85.0332 25.7635 85.1014 25.6953 85.1881 25.6953C85.2749 25.6953 85.343 25.7635 85.343 25.8502Z" fill="#E09F1E"/>
<path d="M87.047 24.9171C87.047 24.9976 86.983 25.0616 86.9024 25.0616C86.8218 25.0616 86.7578 24.9976 86.7578 24.9171C86.7578 24.8365 86.8218 24.7725 86.9024 24.7725C86.983 24.7725 87.047 24.8365 87.047 24.9171Z" fill="#E09F1E"/>
<path d="M89.2035 23.4699C89.2035 23.5215 89.1622 23.5629 89.1105 23.5629C89.0589 23.5629 89.0176 23.5215 89.0176 23.4699C89.0176 23.4183 89.0589 23.377 89.1105 23.377C89.1622 23.377 89.2035 23.4183 89.2035 23.4699Z" fill="#E09F1E"/>
<path d="M85.9119 20.7226C85.9119 20.8196 85.8314 20.9002 85.7343 20.9002C85.6372 20.9002 85.5566 20.8217 85.5566 20.7226C85.5566 20.6234 85.6372 20.5449 85.7343 20.5449C85.8314 20.5449 85.9119 20.6234 85.9119 20.7226Z" fill="#E09F1E"/>
<path d="M51.1839 75.8381C43.338 73.4337 43.2803 72.2355 43.338 72.3014L43.1361 72.005C41.604 69.8084 41.7811 65.7159 34.0937 66.562C26.952 67.476 0.312766 72.1697 0.00180952 63.8467C-0.249426 72.3941 25.7308 68.8079 34.1802 67.7375C43.1135 66.8317 39.001 72.1532 44.7548 74.9056C54.347 79.1628 84.8619 85.3489 94.5983 79.6075C85.5909 84.1344 60.768 78.7367 51.1819 75.8381H51.1839Z" fill="#BF8504"/>
<path d="M174.12 66.9131C174.311 67.8745 174.12 68.5744 173.239 69.0314C167.244 72.3931 108.397 71.0612 94.5996 79.6086C108.36 72.5908 172.466 74.0133 174.176 68.1936C174.305 67.7654 174.233 67.3228 174.12 66.9131Z" fill="#BF8504"/>
<path d="M89.1766 48.0837C86.2792 40.7777 94.5761 36.7346 87.1152 29.5273C94.294 38.4082 84.3352 39.9892 89.4546 49.9365C89.7017 50.4182 91.6313 54.2349 92.7948 56.3203C91.7981 53.8602 89.1457 48.0137 89.1766 48.0837Z" fill="#BF8504"/>
<path d="M134.419 63.5265C132.098 61.439 128.811 53.6904 127.092 50.5469C127.843 52.6796 132.137 63.8291 134.511 64.1749C136.054 64.9469 138.391 70.5814 139.118 72.2221C138.515 70.1717 136.511 63.9732 134.419 63.5265Z" fill="#BF8504"/>
<path d="M141.297 56.2931C139.703 54.6195 138.011 54.7368 136.781 53.4502C135.162 51.8239 135.033 47.8692 124.057 39.7871C138.239 51.9535 133.352 53.1414 138.709 55.3503C142.714 56.9889 141.363 59.3419 151.919 71.8913C142.65 58.9549 142.982 58.0326 141.297 56.2931Z" fill="#BF8504"/>
<path d="M18.234 52.6003C18.234 52.7979 18.0754 52.9564 17.8777 52.9564C17.68 52.9564 17.5215 52.7979 17.5215 52.6003C17.5215 52.4027 17.68 52.2441 17.8777 52.2441C18.0754 52.2441 18.234 52.4027 18.234 52.6003Z" fill="#E09F1E"/>
<path d="M19.2192 54.6528C19.2192 54.7742 19.12 54.871 19.0002 54.871C18.8804 54.871 18.7812 54.7721 18.7812 54.6528C18.7812 54.5334 18.8804 54.4346 19.0002 54.4346C19.12 54.4346 19.2192 54.5334 19.2192 54.6528Z" fill="#E09F1E"/>
<path d="M13.334 53.8986C13.334 54.0262 13.2307 54.1312 13.1006 54.1312C12.9705 54.1312 12.8672 54.0262 12.8672 53.8986C12.8672 53.771 12.9705 53.666 13.1006 53.666C13.2307 53.666 13.334 53.771 13.334 53.8986Z" fill="#E09F1E"/>
<path d="M14.4873 57.1558C14.4873 57.2999 14.3696 57.4152 14.2271 57.4152C14.0845 57.4152 13.9668 57.2979 13.9668 57.1558C13.9668 57.0138 14.0845 56.8965 14.2271 56.8965C14.3696 56.8965 14.4873 57.0138 14.4873 57.1558Z" fill="#E09F1E"/>
<path d="M19.0024 59.6869C19.0024 59.8084 18.9032 59.9051 18.7834 59.9051C18.6636 59.9051 18.5645 59.8063 18.5645 59.6869C18.5645 59.5676 18.6636 59.4688 18.7834 59.4688C18.9032 59.4688 19.0024 59.5676 19.0024 59.6869Z" fill="#E09F1E"/>
<path d="M15.4827 54.1661C15.4827 54.3143 15.3633 54.4337 15.215 54.4337C15.0667 54.4337 14.9473 54.3143 14.9473 54.1661C14.9473 54.0178 15.0667 53.8984 15.215 53.8984C15.3633 53.8984 15.4827 54.0178 15.4827 54.1661Z" fill="#E09F1E"/>
<path d="M11.2549 56.1177C11.2549 56.2313 11.162 56.3243 11.0484 56.3243C10.9347 56.3243 10.8418 56.2313 10.8418 56.1177C10.8418 56.0041 10.9347 55.9111 11.0484 55.9111C11.162 55.9111 11.2549 56.0041 11.2549 56.1177Z" fill="#E09F1E"/>
</svg>
