<svg width="24" height="24" viewBox="0 0 24 24" fill="none" xmlns="http://www.w3.org/2000/svg">
<path d="M3.375 3C2.339 3 1.5 3.84 1.5 4.875V5.625C1.5 6.661 2.34 7.5 3.375 7.5H20.625C21.66 7.5 22.5 6.66 22.5 5.625V4.875C22.5 3.839 21.66 3 20.625 3H3.375Z" fill="#4B5563"/>
<path fill-rule="evenodd" clip-rule="evenodd" d="M3.08691 9L3.62691 18.176C3.67179 18.9395 4.00661 19.6571 4.56293 20.182C5.11925 20.7069 5.85505 20.9995 6.61991 21H17.3769C18.1421 21 18.8784 20.7077 19.4352 20.1827C19.9919 19.6578 20.327 18.9399 20.3719 18.176L20.9129 9H3.08691ZM9.21991 11.845C9.36054 11.7045 9.55116 11.6257 9.74991 11.6257C9.94866 11.6257 10.1393 11.7045 10.2799 11.845L11.9999 13.565L13.7199 11.845C13.7886 11.7713 13.8714 11.7122 13.9634 11.6712C14.0554 11.6302 14.1547 11.6082 14.2554 11.6064C14.3561 11.6046 14.4561 11.6232 14.5495 11.6609C14.6429 11.6986 14.7277 11.7547 14.799 11.826C14.8702 11.8972 14.9263 11.982 14.964 12.0754C15.0018 12.1688 15.0203 12.2688 15.0185 12.3695C15.0167 12.4702 14.9947 12.5695 14.9537 12.6615C14.9127 12.7535 14.8536 12.8363 14.7799 12.905L13.0599 14.625L14.7799 16.345C14.8536 16.4137 14.9127 16.4965 14.9537 16.5885C14.9947 16.6805 15.0167 16.7798 15.0185 16.8805C15.0203 16.9812 15.0018 17.0812 14.964 17.1746C14.9263 17.268 14.8702 17.3528 14.799 17.424C14.7277 17.4953 14.6429 17.5514 14.5495 17.5891C14.4561 17.6268 14.3561 17.6454 14.2554 17.6436C14.1547 17.6418 14.0554 17.6198 13.9634 17.5788C13.8714 17.5378 13.7886 17.4787 13.7199 17.405L11.9999 15.685L10.2799 17.405C10.2113 17.4787 10.1285 17.5378 10.0365 17.5788C9.94445 17.6198 9.84514 17.6418 9.74444 17.6436C9.64373 17.6454 9.5437 17.6268 9.45032 17.5891C9.35693 17.5514 9.2721 17.4953 9.20088 17.424C9.12966 17.3528 9.07351 17.268 9.03579 17.1746C8.99807 17.0812 8.97955 16.9812 8.98132 16.8805C8.9831 16.7798 9.00514 16.6805 9.04613 16.5885C9.08712 16.4965 9.14623 16.4137 9.21991 16.345L10.9399 14.625L9.21991 12.905C9.07946 12.7644 9.00057 12.5738 9.00057 12.375C9.00057 12.1762 9.07946 11.9856 9.21991 11.845Z" fill="#4B5563"/>
</svg>
