<svg width="55" height="66" viewBox="0 0 55 66" fill="none" xmlns="http://www.w3.org/2000/svg">
<path d="M23.9099 65.3655L0.00622559 51.1307V41.4619L23.9099 55.6967V65.3655Z" fill="#003349"/>
<path d="M47.8135 51.1307L23.9099 65.3655V55.6967L47.8135 41.4619V51.1307Z" fill="#FFE4CC"/>
<path d="M23.9036 13.5078L0 27.7426V37.4114L23.9036 23.1766V13.5078Z" fill="#657E92"/>
<path d="M47.8073 27.7426L23.9037 13.5078V23.1766L47.8073 37.4114V27.7426Z" fill="#A3B2BE"/>
<path d="M23.9099 51.6686L0.00622559 37.4369V27.7681L23.9099 41.9998V51.6686Z" fill="#003349"/>
<path d="M47.8135 37.4369L23.9099 51.6686V41.9998L47.8135 27.7681V37.4369Z" fill="#FFE4CC"/>
<path d="M36.5592 18.2896H32.5675V22.2813H36.5592V18.2896Z" fill="#FFE4CC"/>
<path d="M45.5165 13.9482H39.2621V20.2027H45.5165V13.9482Z" fill="#657E92"/>
<path d="M54.1179 10.9795H47.8635V17.2339H54.1179V10.9795Z" fill="#003349"/>
<path d="M50.0513 0H40.9661V9.08519H50.0513V0Z" fill="#FFE4CC"/>
<path d="M38.3944 3.88232H30.7261V11.5506H38.3944V3.88232Z" fill="#003349"/>
</svg>
