<svg width="46" height="45" viewBox="0 0 46 45" fill="none" xmlns="http://www.w3.org/2000/svg">
<path d="M39.1719 8.4375C41.1144 8.4375 42.6875 10.0125 42.6875 11.9531V25.3125H20.1875V11.9531C20.1875 10.0106 21.7625 8.4375 23.7031 8.4375H39.1719ZM20.1875 28.125H42.6875V33.0469C42.6875 34.9875 41.1125 36.5625 39.1719 36.5625H38.4688C38.4688 35.0707 37.8761 33.6399 36.8212 32.585C35.7663 31.5301 34.3356 30.9375 32.8438 30.9375C31.3519 30.9375 29.9212 31.5301 28.8663 32.585C27.8114 33.6399 27.2188 35.0707 27.2188 36.5625H21.5938C21.2208 36.5625 20.8631 36.4143 20.5994 36.1506C20.3357 35.8869 20.1875 35.5292 20.1875 35.1562V28.125Z" fill="#9CA3AF"/>
<path d="M30.0312 36.5625C30.0312 35.8166 30.3276 35.1012 30.855 34.5738C31.3825 34.0463 32.0978 33.75 32.8438 33.75C33.5897 33.75 34.305 34.0463 34.8325 34.5738C35.3599 35.1012 35.6562 35.8166 35.6562 36.5625C35.6562 37.3085 35.3599 38.0238 34.8325 38.5513C34.305 39.0787 33.5897 39.375 32.8438 39.375C32.0978 39.375 31.3825 39.0787 30.855 38.5513C30.3276 38.0238 30.0312 37.3085 30.0312 36.5625ZM15.9688 12.6563C16.3417 12.6563 16.6994 12.8044 16.9631 13.0682C17.2268 13.3319 17.375 13.6896 17.375 14.0625V35.1563C17.375 35.3194 17.3469 35.475 17.2962 35.6213C17.0626 34.2359 16.3189 32.9882 15.2116 32.1235C14.1043 31.2589 12.7135 30.8399 11.3129 30.9489C9.91221 31.058 8.60306 31.6873 7.64298 32.713C6.68291 33.7386 6.1414 35.0865 6.125 36.4913C4.52563 36.1632 3.27125 34.7382 3.38 32.9607C3.79944 26.0951 6.23337 19.5055 10.3775 14.0157C10.7003 13.5912 11.1173 13.2474 11.5956 13.0115C12.0739 12.7756 12.6005 12.654 13.1338 12.6563H15.9688Z" fill="#9CA3AF"/>
<path d="M8.9375 36.5625C8.9375 35.8166 9.23382 35.1012 9.76126 34.5738C10.2887 34.0463 11.0041 33.75 11.75 33.75C12.4959 33.75 13.2113 34.0463 13.7387 34.5738C14.2662 35.1012 14.5625 35.8166 14.5625 36.5625C14.5625 37.3084 14.2662 38.0238 13.7387 38.5512C13.2113 39.0787 12.4959 39.375 11.75 39.375C11.0041 39.375 10.2887 39.0787 9.76126 38.5512C9.23382 38.0238 8.9375 37.3084 8.9375 36.5625Z" fill="#9CA3AF"/>
</svg>
