<svg width="12" height="10" viewBox="0 0 12 10" fill="none" xmlns="http://www.w3.org/2000/svg">
<path d="M10.125 2.75L9.8125 8.066C9.79566 8.35252 9.66995 8.62178 9.46109 8.81865C9.25223 9.01552 8.97602 9.12511 8.689 9.125H3.311C3.02398 9.12511 2.74777 9.01552 2.53891 8.81865C2.33005 8.62178 2.20434 8.35252 2.1875 8.066L1.875 2.75M4.875 4.8125L6 5.9375M6 5.9375L7.125 7.0625M6 5.9375L7.125 4.8125M6 5.9375L4.875 7.0625M1.6875 2.75H10.3125C10.623 2.75 10.875 2.498 10.875 2.1875V1.4375C10.875 1.127 10.623 0.875 10.3125 0.875H1.6875C1.377 0.875 1.125 1.127 1.125 1.4375V2.1875C1.125 2.498 1.377 2.75 1.6875 2.75Z" stroke="#E02424" stroke-width="0.75" stroke-linecap="round" stroke-linejoin="round"/>
</svg>
