<svg width="50" height="54" viewBox="0 0 50 54" fill="none" xmlns="http://www.w3.org/2000/svg">
<path fill-rule="evenodd" clip-rule="evenodd" d="M13.7507 12V13.875H8.78318C6.38318 13.875 4.37318 15.685 4.12068 18.0725L0.963181 48.0725C0.894507 48.7259 0.963938 49.3864 1.16697 50.0112C1.37 50.636 1.7021 51.2111 2.14173 51.6993C2.58136 52.1875 3.11869 52.5778 3.71888 52.845C4.31908 53.1121 4.96872 53.2501 5.62568 53.25H44.3757C45.0326 53.2501 45.6823 53.1121 46.2825 52.845C46.8827 52.5778 47.42 52.1875 47.8596 51.6993C48.2993 51.2111 48.6314 50.636 48.8344 50.0112C49.0374 49.3864 49.1069 48.7259 49.0382 48.0725L45.8807 18.0725C45.7596 16.9204 45.2161 15.8539 44.3551 15.0788C43.4942 14.3037 42.3767 13.8748 41.2182 13.875H36.2507V12C36.2507 9.01631 35.0654 6.15483 32.9556 4.04505C30.8458 1.93526 27.9844 0.75 25.0007 0.75C22.017 0.75 19.1555 1.93526 17.0457 4.04505C14.9359 6.15483 13.7507 9.01631 13.7507 12ZM25.0007 4.5C23.0116 4.5 21.1039 5.29018 19.6974 6.6967C18.2909 8.10322 17.5007 10.0109 17.5007 12V13.875H32.5007V12C32.5007 10.0109 31.7105 8.10322 30.304 6.6967C28.8975 5.29018 26.9898 4.5 25.0007 4.5ZM17.5007 25.125C17.5007 27.1141 18.2909 29.0218 19.6974 30.4283C21.1039 31.8348 23.0116 32.625 25.0007 32.625C26.9898 32.625 28.8975 31.8348 30.304 30.4283C31.7105 29.0218 32.5007 27.1141 32.5007 25.125V23.25C32.5007 22.7527 32.6982 22.2758 33.0499 21.9242C33.4015 21.5725 33.8784 21.375 34.3757 21.375C34.873 21.375 35.3499 21.5725 35.7015 21.9242C36.0531 22.2758 36.2507 22.7527 36.2507 23.25V25.125C36.2507 28.1087 35.0654 30.9702 32.9556 33.0799C30.8458 35.1897 27.9844 36.375 25.0007 36.375C22.017 36.375 19.1555 35.1897 17.0457 33.0799C14.9359 30.9702 13.7507 28.1087 13.7507 25.125V23.25C13.7507 22.7527 13.9482 22.2758 14.2999 21.9242C14.6515 21.5725 15.1284 21.375 15.6257 21.375C16.123 21.375 16.5999 21.5725 16.9515 21.9242C17.3031 22.2758 17.5007 22.7527 17.5007 23.25V25.125Z" fill="#16BDCA"/>
</svg>
